<?xml version="1.0" encoding="utf-8"?>
<!-- Generator: Adobe Illustrator 16.0.0, SVG Export Plug-In . SVG Version: 6.00 Build 0)  -->
<!DOCTYPE svg PUBLIC "-//W3C//DTD SVG 1.1//EN" "http://www.w3.org/Graphics/SVG/1.1/DTD/svg11.dtd">
<svg version="1.1"
	 id="Layer_1" xmlns:rdf="http://www.w3.org/1999/02/22-rdf-syntax-ns#" xmlns:cc="http://creativecommons.org/ns#" xmlns:dc="http://purl.org/dc/elements/1.1/"
	 xmlns="http://www.w3.org/2000/svg" xmlns:xlink="http://www.w3.org/1999/xlink" x="0px" y="0px" width="32px" height="32px"
	 viewBox="0 0 32 32" enable-background="new 0 0 32 32" xml:space="preserve">
<path fill="#FFFFFF" d="M11,6 M5,6.125C3.292,6.125,2,8.13,2,10v16c0,2.216,1.784,4,4,4h20c2.216,0,4-1.784,4-4V10
	c0-1.87-1.271-3.875-3-3.875 M27.167,26.896h-22V9.104h22V26.896z"/>
<path fill="#FFFFFF" d="M25.75,12.062c0,0.265-0.215,0.479-0.479,0.479H7.188c-0.265,0-0.479-0.215-0.479-0.479l0,0
	c0-0.265,0.214-0.479,0.479-0.479h18.083C25.535,11.583,25.75,11.797,25.75,12.062L25.75,12.062z"/>
<path fill="#FFFFFF" d="M25.75,16.021c0,0.265-0.215,0.479-0.479,0.479H7.188c-0.265,0-0.479-0.214-0.479-0.479l0,0
	c0-0.265,0.214-0.479,0.479-0.479h18.083C25.535,15.542,25.75,15.756,25.75,16.021L25.75,16.021z"/>
<path fill="#FFFFFF" d="M25.75,19.979c0,0.266-0.215,0.48-0.479,0.48H7.188c-0.265,0-0.479-0.215-0.479-0.48l0,0
	c0-0.264,0.214-0.479,0.479-0.479h18.083C25.535,19.5,25.75,19.715,25.75,19.979L25.75,19.979z"/>
<path fill="#FFFFFF" d="M25.75,23.938c0,0.266-0.215,0.48-0.479,0.48H7.188c-0.265,0-0.479-0.215-0.479-0.48l0,0
	c0-0.264,0.214-0.479,0.479-0.479h18.083C25.535,23.459,25.75,23.674,25.75,23.938L25.75,23.938z"/>
</svg>
